# xmcd CD database file
#
# Track frame offsets:
#	150
#	25358
#	49012
#	72039
#	97238
#	119463
#	145682
#	169619
#	190170
#	210713
#	233819
#	252472
#
# Disc length: 3745 seconds
#
# Revision: 1
# Processed by: cddbd v1.5.1PL0 Copyright (c) Steve Scherf et al.
# Submitted via: CDex 1.51
#
DISCID=ab0e9f0c
DTITLE=Various Artist - Antilles
DYEAR=1999
DGENRE=Salsa
TTITLE0=Femmes No1
TTITLE1=Homage
TTITLE2=Conte
TTITLE3=Mesentente
TTITLE4=Dona
TTITLE5=Gina
TTITLE6=Femmes No2
TTITLE7=Kwassa
TTITLE8=Priere
TTITLE9=Hugo
TTITLE10=Le Zouk
TTITLE11=La fille choisie
EXTD=YEAR: 1999
EXTT0=
EXTT1=
EXTT2=
EXTT3=
EXTT4=
EXTT5=
EXTT6=
EXTT7=
EXTT8=
EXTT9=
EXTT10=
EXTT11=
PLAYORDER=
